<svg width="87" height="56" viewBox="0 0 87 56" xmlns="http://www.w3.org/2000/svg"><title>Buscapé</title><g fill="none" fill-rule="evenodd"><path d="M15.666 55.602c-5.678 1.464-11.79-1.2-14.358-6.58C-1.317 43.53.52 37.248 5.32 33.943l29.167-18.06L55.772 2.676c8.57-4.762 19.65-3.17 26.153 4.772 0 0 2.62 3.143 3.752 8.147 2.062 10.008-3.8 19.026-13.045 22.373L48.588 45.4 15.666 55.602z" fill="#312F25"/><path d="M19.295 37.476l2.64-1.21 2.337 4.8c.23.475.532.794.903.957.372.163.79.14 1.253-.074.268-.123.482-.283.642-.48.16-.195.27-.41.336-.643.066-.233.08-.48.044-.738-.036-.26-.112-.507-.228-.744l-2.19-4.498 2.62-1.2 4.06 8.337-2.527 1.158-.507-.855c-.126.45-.366.882-.724 1.3-.357.417-.786.74-1.287.97-.99.453-1.91.527-2.76.22-.854-.305-1.55-1.015-2.092-2.13l-2.52-5.172M33.3 38.105c.402.12.873.16 1.41.114.54-.044 1.023-.164 1.45-.36.392-.18.693-.375.904-.588.21-.212.25-.455.115-.727-.052-.106-.127-.19-.225-.255-.098-.064-.24-.1-.424-.11-.183-.01-.427.003-.73.04-.302.038-.682.096-1.137.174-.37.068-.75.108-1.14.12-.39.012-.76-.025-1.11-.11-.348-.088-.667-.24-.96-.454-.29-.214-.528-.51-.713-.89-.19-.39-.27-.785-.24-1.183.03-.4.15-.788.362-1.166.21-.38.51-.733.895-1.062.386-.328.835-.61 1.348-.846.733-.336 1.414-.55 2.04-.642.63-.09 1.25-.09 1.865.006l-.296 2.2c-.368-.048-.766-.06-1.196-.038-.43.022-.87.138-1.323.345-.403.184-.668.375-.797.57-.128.198-.147.392-.055.58.134.274.42.388.864.345.442-.044 1.027-.13 1.756-.26.995-.167 1.792-.134 2.39.1.6.232 1.067.692 1.4 1.38.227.462.313.908.26 1.337-.05.43-.204.838-.458 1.22-.253.386-.584.736-.99 1.053-.406.317-.848.584-1.324.802-.77.353-1.545.585-2.327.697-.783.112-1.488.06-2.12-.16l.506-2.232M49.69 32.402c-.17.54-.48 1.08-.927 1.62-.448.538-1.068.99-1.863 1.353-.696.32-1.382.5-2.057.54-.675.042-1.31-.044-1.908-.257-.596-.212-1.14-.538-1.632-.98-.49-.44-.895-.988-1.213-1.64-.3-.616-.465-1.247-.496-1.893-.03-.646.06-1.264.274-1.854.213-.59.547-1.13 1.003-1.622.457-.492 1.02-.89 1.693-1.2.782-.357 1.52-.543 2.216-.558.694-.014 1.338.097 1.932.332l-.78 2.402c-.3-.124-.63-.205-.992-.242-.363-.037-.776.052-1.24.263-.318.147-.572.34-.762.578-.19.24-.324.5-.404.783-.078.283-.098.58-.06.887.038.31.13.61.274.908.133.273.31.52.53.746.222.224.472.4.75.526.28.127.576.198.89.213.313.016.63-.05.946-.195.453-.207.79-.466 1.01-.778.224-.31.376-.61.462-.896l2.353.966M56.04 29.883c-.13.467-.377.89-.736 1.273-.36.382-.814.7-1.364.95-.305.14-.647.247-1.023.318-.377.07-.757.074-1.14.01-.38-.064-.748-.218-1.1-.464-.35-.244-.646-.616-.888-1.114-.238-.486-.348-.964-.33-1.436.016-.472.14-.915.37-1.334.23-.416.554-.8.974-1.152.42-.352.91-.657 1.47-.914.307-.14.62-.275.936-.406.317-.13.53-.207.64-.228l-.086-.178c-.105-.213-.24-.372-.403-.48-.162-.105-.345-.173-.547-.205-.2-.03-.41-.02-.625.027-.217.048-.435.122-.654.222-.586.27-1.038.563-1.354.882-.316.318-.564.628-.747.928l-1.843-1.068c.12-.214.264-.44.433-.676.17-.237.386-.482.652-.734.265-.252.58-.502.946-.75.367-.246.806-.487 1.32-.723 1.307-.598 2.438-.7 3.393-.303.955.396 1.712 1.17 2.272 2.318l2.364 4.853-2.476 1.134-.454-.75zm-1.41-2.897c-.068.017-.19.054-.37.115-.18.06-.38.142-.6.243-.733.336-1.205.675-1.41 1.016-.21.34-.222.695-.043 1.063.334.687.93.834 1.784.442.21-.094.398-.22.567-.378.17-.158.303-.332.398-.52.096-.188.148-.394.16-.616.01-.222-.04-.45-.157-.69l-.33-.674zM79 19.213c-.068.103-.167.27-.297.494-.128.226-.316.476-.565.75-.248.272-.562.557-.94.853-.38.297-.843.572-1.393.823-.734.336-1.446.53-2.14.578-.693.05-1.34-.026-1.94-.23-.6-.204-1.14-.532-1.623-.985-.483-.453-.884-1.01-1.207-1.676-.284-.58-.456-1.187-.517-1.82-.06-.63 0-1.235.183-1.81.183-.577.49-1.113.922-1.61.433-.492.995-.9 1.693-1.22.696-.318 1.364-.48 2.006-.483.64-.004 1.244.122 1.81.377.565.257 1.083.635 1.552 1.138.468.502.873 1.104 1.214 1.803l.207.426-6.122 2.806c.233.445.63.745 1.19.9.562.157 1.192.075 1.89-.244.682-.313 1.19-.666 1.524-1.057.332-.392.56-.703.687-.935L79 19.213zm-4.326-3.085c-.086-.178-.21-.34-.375-.492-.163-.15-.354-.268-.576-.355-.222-.086-.467-.13-.737-.13-.27 0-.556.07-.862.21-.305.14-.55.315-.732.52-.183.207-.313.424-.392.648-.076.224-.11.446-.1.666.01.22.06.42.145.597l3.63-1.662zM18.673 40.708c-.418-.425-.882-.757-1.392-.993-.512-.237-1.06-.36-1.646-.366-.587-.007-1.185.13-1.796.408-.415.19-.8.454-1.15.79-.353.335-.59.682-.714 1.043l-2.017-4.137c-.723.454-1.304.82-1.72 1.085-.252.162-.493.335-.727.52l5.426 11.138c.497-.054 1.104-.165 1.82-.335.718-.167 1.444-.42 2.177-.756.794-.364 1.447-.8 1.962-1.31.513-.512.885-1.067 1.117-1.666.23-.6.32-1.235.27-1.907-.05-.67-.24-1.345-.57-2.02-.277-.57-.623-1.066-1.04-1.492m-1.312 4.786c-.17.615-.605 1.082-1.302 1.4-.317.147-.572.246-.763.297-.192.052-.376.083-.55.09l-1.257-2.578c-.253-.52-.316-1.003-.19-1.446.13-.442.487-.798 1.074-1.067.304-.14.595-.198.87-.172.274.027.526.107.755.24.23.135.438.312.628.53.188.218.347.456.473.717.346.712.434 1.375.262 1.99M66.673 18.848c-.41-.443-.87-.79-1.382-1.04-.51-.252-1.062-.388-1.653-.406-.592-.02-1.2.114-1.823.4-.477.218-.89.52-1.24.905s-.583.814-.696 1.286l-.258-.436c-.085-.143-.177-.285-.276-.428l-2.53 1.158 5.64 11.575c.954-.3 1.88-.597 2.772-.888l-1.756-3.603c.255-.03.534-.07.838-.124.302-.05.662-.173 1.077-.363.526-.24 1.014-.573 1.465-.997.45-.424.8-.918 1.05-1.482.25-.562.37-1.19.36-1.882-.007-.692-.2-1.423-.575-2.194-.265-.545-.602-1.04-1.012-1.482m-1.34 4.68c-.17.592-.577 1.036-1.225 1.333-.67.31-1.234.43-1.685.36l-1.083-2.222c-.115-.238-.188-.486-.218-.748s-.012-.516.054-.764.186-.477.36-.687c.174-.212.408-.383.7-.518.33-.15.638-.22.922-.204.284.015.543.088.78.22.234.13.45.31.644.54.194.23.358.482.49.755.34.7.428 1.345.26 1.936" fill="#FFF"/><path d="M71.137 10.47l-2.392 2.188c-.424.353-1.04.384-1.46.046l-.008-.007c-.42-.338-.5-.93-.222-1.4l1.78-2.682 1.3-1.96c.542-.743 1.536-1.066 2.384-.677 0 0 .34.15.623.517.55.74.396 1.723-.258 2.377l-1.748 1.597" fill="#D8272D"/></g></svg>